<?xml version="1.0" encoding="UTF-8" standalone="no"?>
<!-- Created with Inkscape (http://www.inkscape.org/) -->

<svg
   xmlns:dc="http://purl.org/dc/elements/1.1/"
   xmlns:cc="http://creativecommons.org/ns#"
   xmlns:rdf="http://www.w3.org/1999/02/22-rdf-syntax-ns#"
   xmlns:svg="http://www.w3.org/2000/svg"
   xmlns="http://www.w3.org/2000/svg"
   xmlns:sodipodi="http://sodipodi.sourceforge.net/DTD/sodipodi-0.dtd"
   xmlns:inkscape="http://www.inkscape.org/namespaces/inkscape"
   width="25px"
   height="25px"
   viewBox="0 0 25 25"
   version="1.1"
   id="SVGRoot"
   inkscape:version="0.92.4 (f8dce91, 2019-08-02)"
   sodipodi:docname="logo.svg">
  <defs
     id="defs4152" />
  <sodipodi:namedview
     id="base"
     pagecolor="#ffffff"
     bordercolor="#666666"
     borderopacity="1.0"
     inkscape:pageopacity="0.0"
     inkscape:pageshadow="2"
     inkscape:zoom="14.481547"
     inkscape:cx="10.299007"
     inkscape:cy="0.88854894"
     inkscape:document-units="px"
     inkscape:current-layer="layer1"
     showgrid="false"
     inkscape:window-width="1920"
     inkscape:window-height="1016"
     inkscape:window-x="0"
     inkscape:window-y="27"
     inkscape:window-maximized="1" />
  <metadata
     id="metadata4155">
    <rdf:RDF>
      <cc:Work
         rdf:about="">
        <dc:format>image/svg+xml</dc:format>
        <dc:type
           rdf:resource="http://purl.org/dc/dcmitype/StillImage" />
        <dc:title></dc:title>
      </cc:Work>
    </rdf:RDF>
  </metadata>
  <g
     inkscape:label="Layer 1"
     inkscape:groupmode="layer"
     id="layer1">
    <g
       style="fill:none;stroke:#000000;stroke-width:0.05"
       id="Template"
       inkscape:label="Layer 1"
       transform="matrix(0.20992697,0,0,0.20892649,12.478237,12.50609)">
      <g
         transform="matrix(0.56887396,0,0,0.56841926,-59.413372,-59.995189)"
         inkscape:label="Layer 1"
         id="layer1-0">
        <rect
           id="rect3767"
           width="0.53453904"
           height="1.3363476"
           x="270.74402"
           y="43.628487"
           style="stroke-width:0.26458332" />
        <path
           id="path3856"
           d="m 205.2883,93.350012 h -5.26232 V 64.748554 c 0,-3.360208 -1.67737,-6.588125 -4.63742,-8.969375 L 162.53195,29.347304 C 159.57189,26.966055 155.55937,25.61668 151.3824,25.61668 h -14.50427 v -12.7 c 0,-7.0114585 -7.07125,-12.70000054 -15.78697,-12.70000054 H 15.844739 c -8.7157203,0 -15.78696371,5.68854204 -15.78696371,12.70000054 v 84.666666 c 0,7.011454 7.07124341,12.700004 15.78696371,12.700004 h 5.262321 c 0,14.02291 14.142488,25.4 31.573926,25.4 17.431439,0 31.573926,-11.37709 31.573926,-25.4 h 42.098578 c 0,14.02291 14.14248,25.4 31.57392,25.4 17.43144,0 31.57393,-11.37709 31.57393,-25.4 h 15.78696 c 2.89427,0 5.26232,-1.905 5.26232,-4.23334 v -8.466664 c 0,-2.328334 -2.36805,-4.233334 -5.26232,-4.233334 z M 52.680986,122.98335 c -8.715719,0 -15.786963,-5.68855 -15.786963,-12.7 0,-7.01146 7.071244,-12.700004 15.786963,-12.700004 8.71572,0 15.786963,5.688544 15.786963,12.700004 0,7.01145 -7.071243,12.7 -15.786963,12.7 z m 105.246424,0 c -8.71572,0 -15.78696,-5.68855 -15.78696,-12.7 0,-7.01146 7.07124,-12.700004 15.78696,-12.700004 8.71572,0 15.78696,5.688544 15.78696,12.700004 0,7.01145 -7.07124,12.7 -15.78696,12.7 z M 184.23902,67.950012 H 136.87813 V 38.316679 h 14.50427 l 32.85662,26.431875 z"
           inkscape:connector-curvature="0"
           style="fill:currentColor;stroke-width:0.29499176" />
        <flowRoot
           xml:space="preserve"
           id="flowRoot3867"
           style="font-style:normal;font-weight:normal;font-size:40px;line-height:1.25;font-family:sans-serif;letter-spacing:0px;word-spacing:0px;fill:#000000;fill-opacity:1;stroke:none"><flowRegion
             id="flowRegion3869"><rect
               id="rect3871"
               width="794.99005"
               height="129.29953"
               x="-1.0101526"
               y="512.38757" /></flowRegion><flowPara
             id="flowPara3873" /></flowRoot>        <text
           xml:space="preserve"
           style="font-style:normal;font-weight:normal;font-size:22.54254532px;line-height:1.25;font-family:sans-serif;letter-spacing:0px;word-spacing:0px;fill:#000000;fill-opacity:1;stroke:none;stroke-width:0.56356359"
           x="-3.614414"
           y="151.02786"
           id="text3877"
           transform="scale(0.84510589,1.1832837)"><tspan
             sodipodi:role="line"
             id="tspan3875"
             x="-3.614414"
             y="151.02786"
             style="font-style:normal;font-variant:normal;font-weight:bold;font-stretch:normal;font-size:42.07941818px;font-family:sans-serif;-inkscape-font-specification:'sans-serif Bold';stroke-width:0.56356359">RESTORAN</tspan></text>
        <text
           xml:space="preserve"
           style="font-style:normal;font-variant:normal;font-weight:normal;font-stretch:normal;font-size:40.89565659px;line-height:1.25;font-family:Sawasdee;-inkscape-font-specification:Sawasdee;letter-spacing:0px;word-spacing:0px;fill:#000000;fill-opacity:1;stroke:none;stroke-width:1.02239156"
           x="-3.7515583"
           y="243.21983"
           id="text3881"
           transform="scale(1.1578896,0.8636402)"><tspan
             sodipodi:role="line"
             id="tspan3879"
             x="-3.7515583"
             y="243.21983"
             style="font-style:normal;font-variant:normal;font-weight:normal;font-stretch:normal;font-family:Sawasdee;-inkscape-font-specification:Sawasdee;stroke-width:1.02239156">DOSTAWA</tspan></text>
      </g>
    </g>
  </g>
</svg>
